<?xml version="1.0" encoding="utf-8"?>
<!-- Generator: Adobe Illustrator 15.0.2, SVG Export Plug-In  -->
<!DOCTYPE svg PUBLIC "-//W3C//DTD SVG 1.1//EN" "http://www.w3.org/Graphics/SVG/1.1/DTD/svg11.dtd" [
	<!ENTITY ns_flows "http://ns.adobe.com/Flows/1.0/">
]>
<svg version="1.1"
	 xmlns="http://www.w3.org/2000/svg" xmlns:xlink="http://www.w3.org/1999/xlink" xmlns:a="http://ns.adobe.com/AdobeSVGViewerExtensions/3.0/"
	 x="0px" y="0px" width="144px" height="144px" viewBox="-1 -3.255 144 144" enable-background="new -1 -3.255 144 144"
	 xml:space="preserve">
<defs>
</defs>
<path fill="#7C930A" d="M125.798,89.276c-0.546-0.314-1.189-0.662-1.902-1.03c-0.66-0.34-1.389-0.701-2.176-1.079
	c-7.005-3.357-18.688-7.994-29.148-10.856c-0.634-6.345-4.016-11.889-8.933-15.432c2.746-10.649,4.546-23.096,5.045-30.739
	c0.058-0.874,0.097-1.685,0.12-2.423c0.014-0.468,0.023-0.918,0.023-1.326C88.827,9.62,82.325,0,70.989,0
	C59.652,0,53.151,9.62,53.151,26.391c0,0.409,0.009,0.855,0.022,1.326c0.023,0.734,0.066,1.551,0.123,2.422
	c0.454,6.884,1.965,17.708,4.234,27.504c0.264,1.138,0.527,2.216,0.791,3.249c-5.231,3.777-8.718,9.824-9.001,16.687
	c-10.342,2.84-21.856,7.398-28.856,10.738c-0.785,0.375-1.511,0.733-2.174,1.072c-0.788,0.403-1.497,0.783-2.089,1.125
	C1.678,98.899-3.401,109.339,2.267,119.158c3.038,5.262,7.861,8.044,13.948,8.044l0,0c5.172,0,11.17-1.948,17.826-5.792
	c0.742-0.428,1.605-0.969,2.547-1.585c0.636-0.418,1.309-0.872,2.019-1.364c5.681-3.936,13.534-10.143,20.309-16.47
	c1.325-1.238,2.532-2.408,3.642-3.521c2.594,1.098,5.443,1.705,8.433,1.705c3.327,0,6.48-0.755,9.301-2.099
	c0.97,0.953,2.013,1.951,3.137,2.994c7.011,6.511,15.146,12.876,20.771,16.703c0.719,0.489,1.392,0.933,2.021,1.333
	c0.627,0.399,1.218,0.764,1.74,1.066c6.656,3.842,12.653,5.79,17.826,5.79c6.087,0,10.91-2.78,13.948-8.044
	C145.401,108.102,140.322,97.661,125.798,89.276z M58.596,26.13c0.039-9.502,2.241-20.688,12.394-20.688S83.344,16.628,83.383,26.13
	c0,0.087,0.002,0.175,0.002,0.261c0,0.631-0.019,1.341-0.055,2.12c-0.322,6.905-2.04,19.24-4.599,29.715
	c-2.406-0.923-5.015-1.433-7.742-1.433c-2.721,0-5.323,0.507-7.725,1.426c-0.144-0.585-0.287-1.182-0.432-1.805
	c-2.367-10.215-3.881-21.492-4.181-27.903c-0.037-0.777-0.059-1.496-0.059-2.12C58.594,26.305,58.595,26.217,58.596,26.13z
	 M55.2,98.014c-7.061,6.596-15.269,13.018-20.742,16.698c-0.713,0.479-1.378,0.911-1.989,1.291
	c-0.406,0.253-0.794,0.488-1.149,0.693c-5.736,3.313-10.959,5.063-15.104,5.063c-4.146,0-7.167-1.742-9.235-5.322
	c-5.122-8.873,3.668-16.433,11.944-21.21c0.247-0.143,0.512-0.29,0.786-0.44c0.632-0.347,1.332-0.711,2.097-1.092
	c6.646-3.313,17.979-7.79,27.985-10.615c1.097,5.059,3.962,9.462,7.914,12.533C56.925,96.38,56.096,97.177,55.2,98.014z
	 M73.734,94.491c-0.07,0.012-0.144,0.021-0.215,0.031c-0.374,0.06-0.749,0.114-1.132,0.146c-0.154,0.014-0.313,0.015-0.468,0.023
	c-0.31,0.017-0.617,0.048-0.931,0.048c-0.164,0-0.323-0.021-0.485-0.024c-0.266-0.01-0.529-0.019-0.791-0.041
	c-0.297-0.023-0.591-0.057-0.883-0.095c-0.058-0.009-0.113-0.018-0.17-0.027c-7.871-1.131-13.927-7.884-13.927-16.069
	c0-8.978,7.278-16.255,16.256-16.255s16.256,7.277,16.256,16.255C87.245,86.524,81.402,93.184,73.734,94.491z M135.021,115.198
	c-2.068,3.582-5.089,5.322-9.235,5.322c-4.146,0-9.368-1.749-15.104-5.062c-0.13-0.076-0.278-0.167-0.415-0.249
	c-0.605-0.359-1.278-0.783-2.013-1.267c-5.358-3.522-13.832-10.091-21.123-16.86c-0.763-0.709-1.474-1.385-2.151-2.039
	c3.881-3.285,6.598-7.903,7.431-13.144c10.104,2.87,21.516,7.401,28.073,10.703c0.775,0.39,1.479,0.762,2.107,1.113
	c0.164,0.091,0.334,0.185,0.486,0.272C131.353,98.767,140.143,106.326,135.021,115.198z"/>
<path fill="#7C930A" d="M15.889,84.114c-0.19-1.862-0.287-3.751-0.287-5.661c0-21.774,12.631-40.646,30.946-49.693
	c-0.212-1.261-0.412-2.507-0.606-3.746c-20.057,9.442-33.979,29.841-33.979,53.439c0,2.36,0.154,4.682,0.425,6.969
	C13.542,84.983,14.709,84.546,15.889,84.114z"/>
<path fill="#7C930A" d="M126.399,78.453c0,1.271-0.06,2.53-0.145,3.782c1.196,0.439,2.378,0.883,3.548,1.328
	c0.145-1.686,0.235-3.387,0.235-5.11c0-23.608-13.936-44.016-34.007-53.451c-0.194,1.235-0.396,2.482-0.609,3.741
	C113.753,37.786,126.399,56.667,126.399,78.453z"/>
<path fill="#7C930A" d="M71,133.852c-11.004,0-21.261-3.239-29.892-8.794c-0.979,0.825-1.957,1.639-2.933,2.44
	c9.393,6.306,20.686,9.992,32.824,9.992c12.695,0,24.458-4.042,34.097-10.888c-0.965-0.784-1.936-1.585-2.907-2.394
	C93.299,130.288,82.56,133.852,71,133.852z"/>
</svg>
