<?xml version="1.0" encoding="utf-8"?>
<!-- Generator: Adobe Illustrator 15.0.2, SVG Export Plug-In  -->
<!DOCTYPE svg PUBLIC "-//W3C//DTD SVG 1.1//EN" "http://www.w3.org/Graphics/SVG/1.1/DTD/svg11.dtd" [
	<!ENTITY ns_flows "http://ns.adobe.com/Flows/1.0/">
]>
<svg version="1.1"
	 xmlns="http://www.w3.org/2000/svg" xmlns:xlink="http://www.w3.org/1999/xlink" xmlns:a="http://ns.adobe.com/AdobeSVGViewerExtensions/3.0/"
	 x="0px" y="0px" width="144px" height="144px" viewBox="-1 -10.259 144 144" enable-background="new -1 -10.259 144 144"
	 xml:space="preserve">
<defs>
</defs>
<path fill="#7C930A" d="M139.986,59.763h-13.972l4.21-7.294c0.55-0.949,0.225-2.161-0.728-2.712
	c-0.957-0.554-2.166-0.225-2.712,0.729l-5.353,9.277h-10.63l10.831-18.76c0.55-0.941,0.225-2.162-0.728-2.708
	c-0.953-0.546-2.162-0.225-2.712,0.725l-11.978,20.743H86.386l-5.985-10.37l9.917-17.176h23.955c1.092,0,1.983-0.887,1.983-1.983
	c0-1.088-0.891-1.983-1.983-1.983H92.607l5.311-9.196l10.711,0.004c1.096,0,1.983-0.887,1.983-1.982
	c0-1.093-0.887-1.983-1.983-1.983l-8.421-0.004l6.988-12.109c0.546-0.945,0.221-2.162-0.725-2.708
	c-0.949-0.554-2.162-0.229-2.715,0.725l-6.988,12.109l-4.211-7.299c-0.55-0.94-1.762-1.271-2.711-0.724
	c-0.945,0.546-1.271,1.763-0.728,2.707l5.357,9.282l-5.307,9.195L78.34,7.511c-0.55-0.953-1.762-1.278-2.711-0.729
	c-0.945,0.55-1.271,1.759-0.729,2.712l11.978,20.739l-9.917,17.176h-11.97l-9.917-17.176L67.048,9.494
	c0.548-0.949,0.223-2.162-0.725-2.712c-0.953-0.55-2.158-0.225-2.709,0.729L52.785,26.267l-5.311-9.195l5.357-9.282
	c0.548-0.944,0.223-2.161-0.724-2.711c-0.949-0.551-2.164-0.221-2.71,0.728l-4.212,7.299L38.191,0.995
	c-0.552-0.953-1.764-1.274-2.709-0.729c-0.947,0.55-1.272,1.759-0.725,2.712l6.988,12.102h-8.417c-1.094,0-1.983,0.895-1.983,1.983
	c0,1.1,0.889,1.983,1.983,1.983h10.711l5.311,9.203H27.691c-1.094,0-1.983,0.888-1.983,1.983c0,1.093,0.889,1.983,1.983,1.983
	h23.951l9.917,17.176l-5.995,10.37h-19.83L23.748,39.02c-0.546-0.945-1.765-1.271-2.708-0.725c-0.949,0.546-1.274,1.763-0.726,2.708
	l10.84,18.76H20.533l-5.355-9.273c-0.552-0.953-1.766-1.274-2.709-0.732c-0.949,0.554-1.274,1.763-0.727,2.716l4.213,7.29H1.983
	C0.889,59.763,0,60.65,0,61.746c0,1.089,0.889,1.983,1.983,1.983h13.975l-4.213,7.298c-0.548,0.949-0.223,2.162,0.727,2.708
	c0.313,0.178,0.655,0.268,0.992,0.268c0.686,0,1.352-0.356,1.722-0.992l5.355-9.281H31.17L20.333,82.49
	c-0.548,0.944-0.223,2.161,0.726,2.711c0.314,0.179,0.655,0.264,0.992,0.264c0.686,0,1.352-0.356,1.722-0.992l11.983-20.743h19.83
	l5.985,10.362l-9.917,17.176H27.707c-1.095,0-1.983,0.895-1.983,1.983c0,1.097,0.889,1.983,1.983,1.983h21.654l-5.311,9.204H33.335
	c-1.094,0-1.983,0.883-1.983,1.983c0,1.092,0.889,1.983,1.983,1.983h8.425l-6.988,12.101c-0.548,0.945-0.223,2.162,0.725,2.712
	c0.313,0.179,0.654,0.264,0.991,0.264c0.688,0,1.354-0.356,1.722-0.992l6.99-12.108l4.212,7.298
	c0.368,0.643,1.036,0.991,1.722,0.991c0.337,0,0.678-0.081,0.992-0.26c0.947-0.554,1.272-1.762,0.725-2.715l-5.361-9.281
	l5.311-9.196l10.829,18.76c0.368,0.64,1.037,0.992,1.722,0.992c0.337,0,0.678-0.081,0.992-0.268
	c0.947-0.546,1.272-1.755,0.726-2.708L55.09,93.251l9.917-17.168h11.978l9.917,17.168l-11.981,20.743
	c-0.546,0.949-0.221,2.162,0.725,2.708c0.313,0.179,0.654,0.268,0.992,0.268c0.689,0,1.355-0.353,1.72-0.992l10.834-18.76
	l5.311,9.204l-5.35,9.273c-0.546,0.945-0.221,2.161,0.725,2.711c0.317,0.179,0.658,0.264,0.992,0.264
	c0.689,0,1.355-0.36,1.728-0.991l4.207-7.291l6.996,12.102c0.368,0.644,1.034,0.992,1.72,0.992c0.337,0,0.678-0.081,0.992-0.26
	c0.945-0.554,1.271-1.763,0.729-2.716l-6.996-12.108h8.425c1.096,0,1.983-0.888,1.983-1.983c0-1.093-0.887-1.983-1.983-1.983H97.953
	l-5.311-9.204l21.662,0.008c1.092,0,1.983-0.891,1.983-1.983s-0.891-1.983-1.983-1.983L90.348,91.26l-9.913-17.168l5.985-10.366
	h19.826l11.985,20.747c0.368,0.636,1.034,0.992,1.72,0.992c0.341,0,0.682-0.085,0.992-0.264c0.949-0.55,1.274-1.763,0.728-2.711
	l-10.858-18.761h10.633l5.365,9.281c0.368,0.64,1.034,0.992,1.72,0.992c0.337,0,0.678-0.082,0.992-0.268
	c0.949-0.546,1.274-1.755,0.732-2.708l-4.215-7.298h13.977c1.088,0,1.983-0.895,1.983-1.983
	C141.977,60.65,141.078,59.763,139.986,59.763z M81.811,63.729l-3.695,6.403l-1.146,1.983h-2.286h-7.401h-2.287l-1.146-1.983
	l-3.69-6.403l-1.146-1.983l1.146-1.983l3.697-6.403l1.147-1.983h2.287h7.393h2.293l1.146,1.983l3.688,6.403l1.147,1.983
	L81.811,63.729z"/>
</svg>
