<?xml version="1.0" encoding="utf-8"?>
<!-- Generator: Adobe Illustrator 15.0.2, SVG Export Plug-In  -->
<!DOCTYPE svg PUBLIC "-//W3C//DTD SVG 1.1//EN" "http://www.w3.org/Graphics/SVG/1.1/DTD/svg11.dtd" [
	<!ENTITY ns_flows "http://ns.adobe.com/Flows/1.0/">
]>
<svg version="1.1"
	 xmlns="http://www.w3.org/2000/svg" xmlns:xlink="http://www.w3.org/1999/xlink" xmlns:a="http://ns.adobe.com/AdobeSVGViewerExtensions/3.0/"
	 x="0px" y="0px" width="144px" height="144px" viewBox="-19 -1.668 144 144" enable-background="new -19 -1.668 144 144"
	 xml:space="preserve">
<defs>
</defs>
<path id="drop-28-icon_2_" fill="#7C930A" d="M20.814,54.22c1.503,4.221,6.012,4.906,8.216,2.476
	c0.831-0.916,1.338-2.182,1.24-3.669c-0.311-4.767-5.484-5.217-5.823-10.395C21.209,46.442,19.608,50.835,20.814,54.22z
	 M24.602,37.984c0.331,3.835,5.02,4.08,5.664,0.74c0.542-2.813-2.391-3.854-1.801-6.911C26.008,33.531,24.415,35.841,24.602,37.984z
	"/>
<path fill="#7C930A" d="M106,82.828c0-2.851-2.312-5.162-5.163-5.162H5.163C2.312,77.666,0,79.978,0,82.828v54.676
	c0,2.851,2.312,5.162,5.163,5.162h95.674c2.852,0,5.163-2.312,5.163-5.162V82.828z M45.841,134.231l5.426-18.888l-10.579-0.525
	L60.51,85.335l-4.62,19.064l11.393,0.566L45.841,134.231z"/>
<path fill="#7C930A" d="M63.479,2.015l-10.23,10.229l3.651,6.897l-4.375,4.376l-2.029-2.029c-0.224-0.224-0.587-0.224-0.812,0
	l-0.566,0.566c-4.248-3.497-9.538-2.633-13.632,1.463l1.379,1.379c2.491-1.868,5.748-1.275,8.457,0.955l-0.911,0.91
	c-0.224,0.226-0.224,0.59,0,0.813l2.048,2.049c-2.287,2.7-2.161,6.762,0.385,9.311l12.983,12.981c2.684,2.685,7.052,2.685,9.736,0
	l21.908-21.907c2.684-2.685,2.684-7.053,0-9.735L73.216,2.015C70.532-0.672,66.163-0.671,63.479,2.015z M89.038,22.706
	c1.343,1.343,1.343,3.524,0,4.868L67.131,49.48c-1.343,1.345-3.526,1.345-4.869,0L49.28,36.499c-1.343-1.343-1.343-3.527,0-4.87
	l11.853-11.853l-3.651-6.897l8.432-8.432c1.343-1.342,3.527-1.342,4.868,0L89.038,22.706z"/>
<polygon fill="#7C930A" points="72.125,13.311 68.513,29.361 52.462,32.973 52.588,33.533 68.374,29.981 64.822,45.767 
	65.381,45.893 68.993,29.842 85.044,26.229 84.918,25.671 69.132,29.222 72.684,13.438 "/>
<rect x="60.428" y="9.013" transform="matrix(-0.7072 0.707 -0.707 -0.7072 119.0771 -27.8443)" fill="#7C930A" width="9.753" height="3.445"/>
<rect x="15" y="72.666" fill="#7C930A" width="21" height="2"/>
<rect x="18" y="74.666" fill="#7C930A" width="15" height="7"/>
</svg>
