<?xml version="1.0" encoding="utf-8"?>
<!-- Generator: Adobe Illustrator 15.0.2, SVG Export Plug-In  -->
<!DOCTYPE svg PUBLIC "-//W3C//DTD SVG 1.1//EN" "http://www.w3.org/Graphics/SVG/1.1/DTD/svg11.dtd" [
	<!ENTITY ns_flows "http://ns.adobe.com/Flows/1.0/">
]>
<svg version="1.1"
	 xmlns="http://www.w3.org/2000/svg" xmlns:xlink="http://www.w3.org/1999/xlink" xmlns:a="http://ns.adobe.com/AdobeSVGViewerExtensions/3.0/"
	 x="0px" y="0px" width="144px" height="144px" viewBox="-1 -7.674 144 144" enable-background="new -1 -7.674 144 144"
	 xml:space="preserve">
<defs>
</defs>
<polygon fill="#C31700" points="107.594,43.428 133.197,5.346 127.23,29.971 141.946,30.703 114.25,68.505 121.258,44.107 "/>
<path fill="#C31700" d="M31.473,79.725c-13.719,0-29.329-9.172-29.984-9.563C0.598,69.631,0,68.673,0,67.636V29.407
	c0-1.625,1.423-2.747,3.046-2.747h56.854c1.624,0,3.101,1.122,3.101,2.747v38.229c0,1.037-0.625,1.995-1.515,2.526
	C60.829,70.553,45.192,79.725,31.473,79.725z M6,65.912c4,2.16,15.625,7.932,25.5,7.932S53,68.072,57,65.912V31.66H6V65.912z"/>
<path fill="#C31700" d="M17,31.367c-1.623,0-3-1.316-3-2.94V2.94C14,1.316,15.377,0,17,0s3,1.316,3,2.94v25.486
	C20,30.051,18.623,31.367,17,31.367z"/>
<path fill="#C31700" d="M46,31.367c-1.623,0-3-1.316-3-2.94V2.94C43,1.316,44.377,0,46,0s3,1.316,3,2.94v25.486
	C49,30.051,47.623,31.367,46,31.367z"/>
<path fill="#C31700" d="M43.054,45.66h-23c-1.104,0-2-0.896-2-2s0.896-2,2-2h23c1.104,0,2,0.896,2,2S44.159,45.66,43.054,45.66z"/>
<path fill="#C31700" d="M43.054,52.66h-23c-1.104,0-2-0.896-2-2s0.896-2,2-2h23c1.104,0,2,0.896,2,2S44.159,52.66,43.054,52.66z"/>
<path fill="#C31700" d="M43.054,59.66h-23c-1.104,0-2-0.896-2-2s0.896-2,2-2h23c1.104,0,2,0.896,2,2S44.159,59.66,43.054,59.66z"/>
<path fill="#C31700" d="M78.914,128.652c-27.578,0-50.013-22.436-50.013-50.014c0-1.816,1.473-3.29,3.29-3.29
	c1.817,0,3.291,1.474,3.291,3.29c0,23.949,19.484,43.434,43.433,43.434s43.433-19.484,43.433-43.434c0-1.816,1.473-3.29,3.29-3.29
	c1.817,0,3.291,1.474,3.291,3.29C128.927,106.217,106.492,128.652,78.914,128.652z"/>
</svg>
