<?xml version="1.0" encoding="utf-8"?>
<!-- Generator: Adobe Illustrator 15.0.2, SVG Export Plug-In  -->
<!DOCTYPE svg PUBLIC "-//W3C//DTD SVG 1.1//EN" "http://www.w3.org/Graphics/SVG/1.1/DTD/svg11.dtd" [
	<!ENTITY ns_flows "http://ns.adobe.com/Flows/1.0/">
]>
<svg version="1.1"
	 xmlns="http://www.w3.org/2000/svg" xmlns:xlink="http://www.w3.org/1999/xlink" xmlns:a="http://ns.adobe.com/AdobeSVGViewerExtensions/3.0/"
	 x="0px" y="0px" width="144px" height="144px" viewBox="-15.683 -1 144 144" enable-background="new -15.683 -1 144 144"
	 xml:space="preserve">
<defs>
</defs>
<path id="danger-8-icon_1_" fill="#7C930A" d="M71.066,142c7.8-1.952,19.766-19.234,17.733-36.245
	c-2.291,6.231-12.851,12.186-15.65,11.23c5.344-8.012,11.358-25.962,4.313-36.81c-2.321,7.778-7.779,13.783-12.554,13.775
	c5.845-9.834,6.912-38.942-23.804-44.667c13.545,20.032-20.548,44.129,5.918,68.493c-7.225-0.074-14.458-6.077-18.143-12.901
	c-6.413,16.648,6.038,32.677,12.04,37.124c-29.235-3.144-45.815-39.376-39.635-67.839c2.486,15.158,15.586,19.523,21.124,19.765
	C-12.878,51.244,45.43,33.006,32.201,0c22.132,2.227,47.65,25.452,40.485,50.63c6.755-1.842,13.101-8.598,14.514-18.79
	c14.245,19.841,13.044,43.501,6.367,58.764c6.344-0.057,15.964-8.654,18.012-17.388C118.586,115.066,89.038,142,71.066,142z"/>
</svg>
