<?xml version="1.0" encoding="utf-8"?>
<!-- Generator: Adobe Illustrator 15.0.2, SVG Export Plug-In  -->
<!DOCTYPE svg PUBLIC "-//W3C//DTD SVG 1.1//EN" "http://www.w3.org/Graphics/SVG/1.1/DTD/svg11.dtd" [
	<!ENTITY ns_flows "http://ns.adobe.com/Flows/1.0/">
]>
<svg version="1.1"
	 xmlns="http://www.w3.org/2000/svg" xmlns:xlink="http://www.w3.org/1999/xlink" xmlns:a="http://ns.adobe.com/AdobeSVGViewerExtensions/3.0/"
	 x="0px" y="0px" width="144px" height="144px" viewBox="-1 -6.1 144 144" enable-background="new -1 -6.1 144 144"
	 xml:space="preserve">
<defs>
</defs>
<path id="drop-28-icon_1_" fill="#C31700" d="M70.982,92.688c17.075,0,30.895-13.701,30.895-30.608
	c0-16.898-12.09-34.286-30.895-62.079C52.178,27.793,40.094,45.181,40.094,62.079C40.094,78.986,53.909,92.688,70.982,92.688z
	 M70.882,19.768c1.799,2.808,3.965,7.675,3.965,12.822c0,15.098-15.451,17.57-15.451,8.381
	C59.396,34.671,67.08,25.357,70.882,19.768z M111.524,80.921c8.417-8.146,17.751-1.053,25.502-8.557
	c2.422-2.337,3.49-5.226,3.49-8.017c0-7.407-8.582-13.1-17.498-8.318C115.868,59.861,111.885,69.636,111.524,80.921z
	 M112.553,51.567c3.648-6.009,10.133-3.304,13.492-8.828c3.989-6.562-4.226-13.267-10.596-7.353
	C111.885,38.69,111.048,44.967,112.553,51.567z M18.981,56.029c-8.915-4.781-17.497,0.909-17.497,8.318
	c0,2.791,1.068,5.68,3.484,8.017c7.751,7.504,17.091,0.411,25.503,8.557C30.11,69.636,26.132,59.861,18.981,56.029z M26.551,35.387
	c-6.37-5.914-14.584,0.791-10.602,7.353c3.361,5.526,9.844,2.819,13.499,8.828C30.947,44.967,30.115,38.69,26.551,35.387z"/>
<path fill="#C31700" d="M71,119.771c-19.455,0-39.149-4.613-39.149-13.429c0-2.159,1.198-4.15,3.563-5.924l1.567-1.176l2.35,3.132
	l-1.567,1.176c-0.912,0.684-1.997,1.723-1.997,2.792c0,3.972,13.404,9.512,35.233,9.512s35.233-5.54,35.233-9.512
	c0-1.124-1.188-2.214-2.186-2.931l-1.59-1.143l2.286-3.181l1.59,1.144c2.532,1.819,3.815,3.876,3.815,6.11
	C110.149,115.157,90.455,119.771,71,119.771z"/>
<path fill="#C31700" d="M71,135.801c-35.283,0-71-8.452-71-24.605c0-4.02,2.214-7.72,6.582-10.995l3.134-2.35l4.7,6.267l-3.133,2.35
	c-1.288,0.966-3.449,2.864-3.449,4.729c0,6.838,24.607,16.773,63.167,16.773s63.167-9.936,63.167-16.773
	c0-1.456-1.343-3.221-3.78-4.971l-3.182-2.285l4.568-6.361l3.182,2.285c4.674,3.354,7.044,7.168,7.044,11.332
	C142,127.349,106.283,135.801,71,135.801z"/>
</svg>
