<?xml version="1.0" encoding="utf-8"?>
<!-- Generator: Adobe Illustrator 15.0.2, SVG Export Plug-In  -->
<!DOCTYPE svg PUBLIC "-//W3C//DTD SVG 1.1//EN" "http://www.w3.org/Graphics/SVG/1.1/DTD/svg11.dtd" [
	<!ENTITY ns_flows "http://ns.adobe.com/Flows/1.0/">
]>
<svg version="1.1"
	 xmlns="http://www.w3.org/2000/svg" xmlns:xlink="http://www.w3.org/1999/xlink" xmlns:a="http://ns.adobe.com/AdobeSVGViewerExtensions/3.0/"
	 x="0px" y="0px" width="144px" height="144px" viewBox="-1 -1 144 144" enable-background="new -1 -1 144 144"
	 xml:space="preserve">
<defs>
</defs>
<path fill="#C31700" d="M71,142c-39.149,0-71-31.851-71-71S31.851,0,71,0s71,31.851,71,71S110.149,142,71,142z M71,6.697
	C35.544,6.697,6.698,35.544,6.698,71S35.544,135.303,71,135.303S135.302,106.456,135.302,71S106.456,6.697,71,6.697z"/>
<path fill="#C31700" d="M120.147,49.514C92.685,22.6,48.453,22.765,21.201,50.017l0.492,0.49L29,60.943l4.389-3.074l-5.028-7.181
	c4.626-4.019,9.681-7.287,15.015-9.779l3.233,6.932l4.856-2.265l-3.24-6.72C54.641,36.485,62,35.15,68,34.871v7.463h6v-7.466
	c7,0.285,13.894,1.724,20.589,4.304l-3.32,6.302l4.722,2.434l3.334-6.599c5.095,2.468,9.917,5.639,14.35,9.515l-4.941,7.046
	l4.386,3.074l7.683-10.974L120.147,49.514z"/>
<path fill="#C31700" d="M79.462,101.759c-0.003-0.021-0.007-0.041-0.009-0.063C79.456,101.717,79.459,101.738,79.462,101.759z"/>
<path fill="#C31700" d="M79.411,103.961c0.004-0.025,0.006-0.051,0.009-0.075C79.417,103.91,79.415,103.936,79.411,103.961z"/>
<path fill="#C31700" d="M84.873,97.334c0.15,0,0.292,0.232,0.419,0.581c1.387,3.812,1.205,7.722-0.514,11.407
	s-4.765,6.367-8.578,7.755c-1.677,0.61-3.427,0.864-5.201,0.864c-6.369,0-12.113-3.608-14.292-9.596
	c-1.398-3.841-1.14-8.012,0.433-11.012c-24.805,0-39.056,0-39.056,0s19.621,33.49,52.915,33.49s52.915-33.49,52.915-33.49
	S109.671,97.334,84.873,97.334z"/>
<path fill="#C31700" d="M82.132,98.618c-1.045-2.875-3.147-5.165-5.767-6.504l-4.051-22.171c-0.091-0.661-0.658-1.154-1.327-1.154
	s-1.233,0.493-1.326,1.154l-4.051,22.17c-5.263,2.676-7.837,8.932-5.768,14.618c1.699,4.669,6.179,7.807,11.145,7.807
	c1.383,0,2.747-0.242,4.055-0.719C81.188,111.583,84.369,104.764,82.132,98.618z M72.751,107.525
	c-0.571,0.208-1.166,0.314-1.765,0.314c-2.161,0-4.11-1.367-4.851-3.398c-0.973-2.676,0.411-5.644,3.086-6.618
	c0.572-0.208,1.166-0.313,1.765-0.313c2.161,0,4.112,1.365,4.851,3.398C76.811,103.584,75.427,106.552,72.751,107.525z"/>
</svg>
