<?xml version="1.0" encoding="utf-8"?>
<!-- Generator: Adobe Illustrator 15.0.2, SVG Export Plug-In  -->
<!DOCTYPE svg PUBLIC "-//W3C//DTD SVG 1.1//EN" "http://www.w3.org/Graphics/SVG/1.1/DTD/svg11.dtd" [
	<!ENTITY ns_flows "http://ns.adobe.com/Flows/1.0/">
]>
<svg version="1.1"
	 xmlns="http://www.w3.org/2000/svg" xmlns:xlink="http://www.w3.org/1999/xlink" xmlns:a="http://ns.adobe.com/AdobeSVGViewerExtensions/3.0/"
	 x="0px" y="0px" width="144px" height="144px" viewBox="-24.888 -1.5 144 144" enable-background="new -24.888 -1.5 144 144"
	 xml:space="preserve">
<defs>
</defs>
<g>
	<g>
		<path fill="#C31700" d="M54.112,19h-14v6h14V19z M50.612,30.196v-4h-7v4H50.612z M54.112,5h-14v6h14V5z M54.112,12h-14v6h14V12z
			 M25.112,19h-14v6h14V19z M25.112,5h-14v6h14V5z M21.612,0h-7v4h7V0z M82.112,5h-14v6h14V5z M82.112,12h-14v6h14V12z M78.612,0h-7
			v4h7V0z M78.612,30.196v-4h-7v4H78.612z M50.612,0h-7v4h7V0z M82.112,19h-14v6h14V19z M25.112,12h-14v6h14V12z M52.112,121.804h14
			v-6h-14V121.804z M52.112,128.804h14v-6h-14V128.804z M55.612,110.804v4h7v-4H55.612z M21.612,30.196v-4h-7v4H21.612z
			 M87.589,32.027H6.636C2.977,32.027,0,35.005,0,38.663v63.701C0,106.022,2.977,109,6.636,109h80.953
			c3.659,0,6.636-2.978,6.636-5.486V39.813C94.225,35.005,91.248,32.027,87.589,32.027z M88.916,102.364
			c0,0.731-0.595,1.327-1.327,1.327H6.636c-0.732,0-1.327-0.596-1.327-1.327V38.663c0-0.731,0.595-1.327,1.327-1.327h80.953
			c0.732,0,1.327,0.596,1.327,1.327V102.364z M52.112,135.804h14v-6h-14V135.804z M52.837,45.802l-20.096,29.89l10.726,0.534
			l-5.501,19.149l21.738-29.671l-11.55-0.574L52.837,45.802z M55.612,141h7v-4h-7V141z M24.112,135.804h14v-6h-14V135.804z
			 M27.612,141h7v-4h-7V141z M24.112,128.804h14v-6h-14V128.804z M24.112,121.804h14v-6h-14V121.804z M27.612,110.804v4h7v-4H27.612
			z"/>
	</g>
</g>
</svg>
